<?xml version="1.0" encoding="utf-8"?><svg xmlns="http://www.w3.org/2000/svg" viewBox="0 0 283.46 63.6"><defs><style>.cls-1{fill:#19499c;}.cls-2{fill:#ee3425;}</style></defs><title>Asset 1</title><g id="Layer_2" data-name="Layer 2"><g id="Layer_1-2" data-name="Layer 1"><path class="cls-1" d="M110.42,43.13l7.35,1.71q-1.48,5.83-4.6,8.66a10.85,10.85,0,0,1-7.58,2.83A11.08,11.08,0,0,1,96,51.62q-4-5.49-4-15.35,0-9.71,4-15.56,3.4-4.93,8.8-4.93a10.74,10.74,0,0,1,9.4,5q3.92,5.78,3.91,17l0,1.17H99.61a12.74,12.74,0,0,0,1.81,7.14,5.08,5.08,0,0,0,4.24,2.52C108,48.67,109.62,46.82,110.42,43.13Zm.38-10.39q-.09-4.55-1.7-6.83a4.61,4.61,0,0,0-3.82-2.29A4.66,4.66,0,0,0,101.34,26a11.78,11.78,0,0,0-1.61,6.74Z"/><path class="cls-1" d="M118.63,55.42V2H126V55.42Z"/><path class="cls-1" d="M144.91,43.13l7.35,1.71q-1.48,5.83-4.6,8.66a10.84,10.84,0,0,1-7.58,2.83,11.08,11.08,0,0,1-9.57-4.71q-4-5.49-4-15.35,0-9.71,4-15.56,3.39-4.93,8.79-4.93a10.74,10.74,0,0,1,9.4,5q3.92,5.78,3.92,17l0,1.17H134.1a12.73,12.73,0,0,0,1.82,7.14,5.07,5.07,0,0,0,4.23,2.52Q143.72,48.67,144.91,43.13Zm.39-10.39q-.11-4.55-1.7-6.83a4.62,4.62,0,0,0-3.82-2.29A4.68,4.68,0,0,0,135.83,26a11.7,11.7,0,0,0-1.6,6.74Z"/><path class="cls-1" d="M179,28.11l-7.28,1.82q-.81-6.09-5.07-6.09a5.07,5.07,0,0,0-4.42,2.63q-1.68,2.64-1.68,8.89c0,4.61.56,7.86,1.68,9.77A5,5,0,0,0,166.69,48a4.29,4.29,0,0,0,3.44-1.62c.9-1.09,1.55-3,1.93-5.75l7.29,1.72q-2.25,14-12.93,14a10.85,10.85,0,0,1-10.14-5.92A28.71,28.71,0,0,1,153,36.16q0-10,3.74-15.17a11.57,11.57,0,0,1,9.82-5.21,11.15,11.15,0,0,1,8,3Q177.65,21.69,179,28.11Z"/><path class="cls-1" d="M193.68,16.69v8.17h-5V40.49a39.06,39.06,0,0,0,.22,5.88,1.8,1.8,0,0,0,1.83,1.46,7.31,7.31,0,0,0,2.95-1l.65,7.95a11.16,11.16,0,0,1-5.81,1.53A6.54,6.54,0,0,1,184,54.8a7.83,7.83,0,0,1-2.27-4.42,51.57,51.57,0,0,1-.45-8.62V24.86h-3.41V16.69h3.41V9l7.41-6V16.69Z"/><path class="cls-1" d="M203,55.42h-7.42V16.69h6.87V22.2a17,17,0,0,1,3.16-5.14,4.65,4.65,0,0,1,3.23-1.28,7.49,7.49,0,0,1,4.84,1.93l-2.31,8.94A5.3,5.3,0,0,0,208,25a3.56,3.56,0,0,0-2.72,1.3A9.18,9.18,0,0,0,203.55,31,99.76,99.76,0,0,0,203,43.44Z"/><path class="cls-1" d="M215,11.44V2h7.41v9.48Zm0,44V16.69h7.41V55.42Z"/><path class="cls-1" d="M249.7,28.11l-7.29,1.82q-.79-6.09-5.06-6.09a5.05,5.05,0,0,0-4.42,2.63q-1.68,2.64-1.68,8.89c0,4.61.56,7.86,1.67,9.77A5,5,0,0,0,237.39,48a4.29,4.29,0,0,0,3.45-1.62c.9-1.09,1.54-3,1.93-5.75l7.28,1.72q-2.25,14-12.93,14A10.85,10.85,0,0,1,227,50.41a28.81,28.81,0,0,1-3.3-14.25q0-10,3.74-15.17a11.54,11.54,0,0,1,9.81-5.21,11.19,11.19,0,0,1,8,3Q248.36,21.69,249.7,28.11Z"/><path class="cls-1" d="M257.52,28.47l-6.71-1.68q1.22-5.87,4-8.44t8.07-2.57q4.68,0,7.15,1.5a8.36,8.36,0,0,1,3.53,4.07q1.07,2.56,1.06,9.36l-.06,12a57.09,57.09,0,0,0,.35,7.5,28.05,28.05,0,0,0,1.31,5.24h-7.31l-1-4.23A14.4,14.4,0,0,1,263.92,55a8.79,8.79,0,0,1-4.61,1.3,8.29,8.29,0,0,1-6.67-3.12A12.53,12.53,0,0,1,250,44.9a14.26,14.26,0,0,1,1.06-5.73,9.51,9.51,0,0,1,3-3.91,18.35,18.35,0,0,1,6.16-2.59,32.28,32.28,0,0,0,7.16-2.52,14.29,14.29,0,0,0-.4-4.24,3.39,3.39,0,0,0-1.48-1.65,5.94,5.94,0,0,0-3-.64,4.52,4.52,0,0,0-3.13,1A7.69,7.69,0,0,0,257.52,28.47Zm9.88,8.35a34.34,34.34,0,0,1-4.4,1.54c-2.29.68-3.78,1.44-4.49,2.26a4.79,4.79,0,0,0-1.06,3.22,6,6,0,0,0,1.17,3.75,3.58,3.58,0,0,0,2.94,1.52,5,5,0,0,0,3.11-1.23A6.3,6.3,0,0,0,266.8,45a20.86,20.86,0,0,0,.6-6.11Z"/><path class="cls-1" d="M276.05,55.42V2h7.41V55.42Z"/><path class="cls-2" d="M29.94,54.34a31.25,31.25,0,0,1-9.68,1.36q-10.35-.08-15.69-6T.13,33.21A42.76,42.76,0,0,1,2.44,22.59a41,41,0,0,1,5.13-9.88,31.18,31.18,0,0,1,7.76-7.78,24.8,24.8,0,0,1,8.61-4A36.87,36.87,0,0,1,32.31,0Q43.35.09,48,6.65T51.83,23a42.88,42.88,0,0,1-3.74,13.79,34.78,34.78,0,0,1-9.69,12.6A46.52,46.52,0,0,0,44.45,55l-6.3,8.64A77.43,77.43,0,0,1,29.94,54.34Zm.23-14.8a29.4,29.4,0,0,0,4.75-8.33,33.43,33.43,0,0,0,2.29-9.09,9.92,9.92,0,0,0-1.72-7,7,7,0,0,0-5.85-2.81,9.91,9.91,0,0,0-7.34,3.28,23.77,23.77,0,0,0-5.21,8.86,39.78,39.78,0,0,0-2.29,9.46,10,10,0,0,0,1.59,6.77,6.81,6.81,0,0,0,5.91,2.78L24,43.36a12.41,12.41,0,0,0-2.71-3.42q-1.86-1.72-2.49-2.43l4-5.38A42,42,0,0,1,30.17,39.54Z"/><path class="cls-2" d="M91.4,55.74H76.9l.57-8.93H61.75l-4.84,8.68L40,55.89,75.59,1H91.4ZM78.12,35.23l1.27-19.88h-.13l-11,19.88Z"/></g></g></svg>